<svg width="186.000000" height="58.000000" viewBox="0 0 186 58" fill="none" xmlns="http://www.w3.org/2000/svg" xmlns:xlink="http://www.w3.org/1999/xlink">
	<desc>
			Created with Pixso.
	</desc>
	<g clip-path="url(#clip2_1)">
		<path d="M0 0L186 0L165.042 30.6292L186 58L0 58L22.0056 30.6292L0 0Z" fill-rule="evenodd" fill="#1D77BF" fill-opacity="0.200000"/>
		<path d="M4 0L182 0L161.944 30.6292L182 58L4 58L25.0592 30.6292L4 0Z" fill-rule="evenodd" fill="#FFCD00"/>
		<path d="M4 0L182 0L161.944 30.6292L182 58L4 58L25.0592 30.6292L4 0Z" fill-rule="evenodd" fill="#FFCD00"/>
		<path d="M93.6779 20.9766C93.6779 18.4541 95.6994 16.4414 97.967 16.4414C100.235 16.4414 102.247 18.4541 102.247 20.9766L102.247 41.209C102.247 41.6396 101.887 42 101.456 42C101.026 42 100.665 41.6396 100.665 41.209L100.665 32.5342L95.2599 32.5342L95.2599 41.209C95.2599 41.6396 94.9084 42 94.4689 42C94.0383 42 93.6779 41.6396 93.6779 41.209L93.6779 20.9766ZM47.1289 16.8018L50.6973 16.8018C53.1406 16.8018 55.2324 18.7441 55.2324 21.3369L55.2324 37.4648C55.2324 40.0576 53.1406 42 50.6973 42L47.1289 42C46.6982 42 46.3379 41.6396 46.3379 41.209L46.3379 29.8711C46.3379 29.4316 46.6982 29.0801 47.1289 29.0801C47.5684 29.0801 47.9199 29.4316 47.9199 29.8711L47.9199 40.418L50.6973 40.418C52.3145 40.418 53.6504 39.082 53.6504 37.4648L53.6504 21.3369C53.6504 19.7197 52.3145 18.3838 50.6973 18.3838L47.9199 18.3838L47.9199 24.8262C47.9199 25.2568 47.5684 25.6172 47.1289 25.6172C46.6982 25.6172 46.3379 25.2568 46.3379 24.8262L46.3379 17.5928C46.3379 17.1621 46.6982 16.8018 47.1289 16.8018ZM63.2234 39.1523C63.2234 39.7324 63.7243 40.418 64.5242 40.418C64.9548 40.418 65.3152 40.7783 65.3152 41.209C65.3152 41.6396 64.9548 42 64.5242 42C63.6892 42 62.9685 41.6748 62.4324 40.9189C61.8962 41.6748 61.1755 42 60.3406 42C59.9099 42 59.5495 41.6396 59.5495 41.209C59.5495 40.7783 59.9099 40.418 60.3406 40.418C61.1404 40.418 61.6413 39.7324 61.6413 39.1523L61.6413 19.6406C61.6413 19.0693 61.1404 18.3838 60.3406 18.3838C59.9099 18.3838 59.5495 18.0234 59.5495 17.5928C59.5495 17.1621 59.9099 16.8018 60.3406 16.8018C61.1755 16.8018 61.8962 17.127 62.4324 17.8828C62.9685 17.127 63.6892 16.8018 64.5242 16.8018C64.9548 16.8018 65.3152 17.1621 65.3152 17.5928C65.3152 18.0234 64.9548 18.3838 64.5242 18.3838C63.7243 18.3838 63.2234 19.0693 63.2234 19.6406L63.2234 39.1523ZM76.8281 25.292C76.8281 25.9072 76.6524 26.5225 76.0371 27.1641C77.6983 27.3838 78.6651 28.5703 78.6651 30.082L78.6651 41.209C78.6651 41.6396 78.3047 42 77.874 42C77.4434 42 77.083 41.6396 77.083 41.209L77.083 30.082C77.083 29.1855 76.3623 28.4648 75.4658 28.4648L71.2119 28.4648L71.2119 41.209C71.2119 41.6396 70.8604 42 70.4209 42C69.9902 42 69.6299 41.6396 69.6299 41.209L69.6299 17.5928C69.6299 17.1621 69.9902 16.8018 70.4209 16.8018C70.8604 16.8018 71.2119 17.1621 71.2119 17.5928L71.2119 26.8828L73.7344 26.8828C74.5254 26.8828 75.2461 26.1621 75.2461 25.292L75.2461 20.9766C75.2461 20.5459 75.6065 20.1855 76.0371 20.1855C76.4678 20.1855 76.8281 20.5459 76.8281 20.9766L76.8281 25.292ZM82.1643 16.8018L89.6438 16.8018C90.0833 16.8018 90.4436 17.1621 90.4436 17.5928C90.4436 18.0234 90.0833 18.3838 89.6438 18.3838L86.6995 18.3838L86.6995 41.209C86.6995 41.6396 86.3391 42 85.8997 42C85.469 42 85.1086 41.6396 85.1086 41.209L85.1086 18.3838L82.1643 18.3838C81.7249 18.3838 81.3645 18.0234 81.3645 17.5928C81.3645 17.1621 81.7249 16.8018 82.1643 16.8018ZM114.449 17.1973L111.426 22.9893L108.402 17.1973C108.262 16.9072 108.007 16.8018 107.717 16.8018C107.286 16.8018 106.926 17.1621 106.926 17.5928L106.926 41.209C106.926 41.6396 107.286 42 107.717 42C108.156 42 108.508 41.6396 108.508 41.209L108.508 27.1289L110.784 30.7324C111.03 31.1279 111.821 31.1279 112.076 30.7324L114.344 27.1289L114.344 41.209C114.344 41.6396 114.704 42 115.135 42C115.566 42 115.926 41.6396 115.926 41.209L115.926 17.5928C115.926 17.1621 115.566 16.8018 115.135 16.8018C114.845 16.8018 114.599 16.9072 114.449 17.1973ZM126.873 35.2324C126.873 35.6631 126.512 36.0234 126.082 36.0234L122.188 36.0234L122.188 39.1523C122.188 39.8379 122.803 40.418 123.489 40.418L126.082 40.418C126.512 40.418 126.873 40.7783 126.873 41.209C126.873 41.6396 126.512 42 126.082 42L123.489 42C121.907 42 120.606 40.7432 120.606 39.1523L120.606 19.6406C120.606 18.0586 121.907 16.8018 123.489 16.8018L126.082 16.8018C126.512 16.8018 126.873 17.1621 126.873 17.5928C126.873 18.0234 126.512 18.3838 126.082 18.3838L123.489 18.3838C122.803 18.3838 122.188 18.9639 122.188 19.6406L122.188 34.4414L126.082 34.4414C126.512 34.4414 126.873 34.8018 126.873 35.2324ZM138.538 17.5928C138.538 17.1621 138.898 16.8018 139.329 16.8018C139.759 16.8018 140.12 17.1621 140.12 17.5928L140.12 41.209C140.12 41.6396 139.759 42 139.329 42C138.968 42 138.678 41.7803 138.573 41.4639L132.772 22.7783L132.772 41.209C132.772 41.6396 132.42 42 131.981 42C131.55 42 131.19 41.6396 131.19 41.209L131.19 17.5928C131.19 17.1621 131.55 16.8018 131.981 16.8018C132.341 16.8018 132.631 17.0127 132.737 17.3379L138.538 36.0234L138.538 17.5928ZM95.2599 28.0342L100.665 28.0342L100.665 20.9766C100.665 19.2803 99.4787 18.0234 97.967 18.0234C96.4553 18.0234 95.2599 19.2803 95.2599 20.9766L95.2599 28.0342ZM110.784 25.0811C110.995 25.5117 111.857 25.5117 112.076 25.0811L114.344 20.792L114.344 24.1758L111.426 28.79L108.508 24.1758L108.508 20.792L110.784 25.0811ZM95.2599 30.9521L100.665 30.9521L100.665 29.6162L95.2599 29.6162L95.2599 30.9521Z" fill-rule="evenodd" fill="#004B87"/>
		<path d="M93.6779 20.9766C93.6779 18.4541 95.6994 16.4414 97.967 16.4414C100.235 16.4414 102.247 18.4541 102.247 20.9766L102.247 41.209C102.247 41.6396 101.887 42 101.456 42C101.026 42 100.665 41.6396 100.665 41.209L100.665 32.5342L95.2599 32.5342L95.2599 41.209C95.2599 41.6396 94.9084 42 94.4689 42C94.0383 42 93.6779 41.6396 93.6779 41.209L93.6779 20.9766ZM47.1289 16.8018L50.6973 16.8018C53.1406 16.8018 55.2324 18.7441 55.2324 21.3369L55.2324 37.4648C55.2324 40.0576 53.1406 42 50.6973 42L47.1289 42C46.6982 42 46.3379 41.6396 46.3379 41.209L46.3379 29.8711C46.3379 29.4316 46.6982 29.0801 47.1289 29.0801C47.5684 29.0801 47.9199 29.4316 47.9199 29.8711L47.9199 40.418L50.6973 40.418C52.3145 40.418 53.6504 39.082 53.6504 37.4648L53.6504 21.3369C53.6504 19.7197 52.3145 18.3838 50.6973 18.3838L47.9199 18.3838L47.9199 24.8262C47.9199 25.2568 47.5684 25.6172 47.1289 25.6172C46.6982 25.6172 46.3379 25.2568 46.3379 24.8262L46.3379 17.5928C46.3379 17.1621 46.6982 16.8018 47.1289 16.8018ZM63.2234 39.1523C63.2234 39.7324 63.7243 40.418 64.5242 40.418C64.9548 40.418 65.3152 40.7783 65.3152 41.209C65.3152 41.6396 64.9548 42 64.5242 42C63.6892 42 62.9685 41.6748 62.4324 40.9189C61.8962 41.6748 61.1755 42 60.3406 42C59.9099 42 59.5495 41.6396 59.5495 41.209C59.5495 40.7783 59.9099 40.418 60.3406 40.418C61.1404 40.418 61.6413 39.7324 61.6413 39.1523L61.6413 19.6406C61.6413 19.0693 61.1404 18.3838 60.3406 18.3838C59.9099 18.3838 59.5495 18.0234 59.5495 17.5928C59.5495 17.1621 59.9099 16.8018 60.3406 16.8018C61.1755 16.8018 61.8962 17.127 62.4324 17.8828C62.9685 17.127 63.6892 16.8018 64.5242 16.8018C64.9548 16.8018 65.3152 17.1621 65.3152 17.5928C65.3152 18.0234 64.9548 18.3838 64.5242 18.3838C63.7243 18.3838 63.2234 19.0693 63.2234 19.6406L63.2234 39.1523ZM76.8281 25.292C76.8281 25.9072 76.6524 26.5225 76.0371 27.1641C77.6983 27.3838 78.6651 28.5703 78.6651 30.082L78.6651 41.209C78.6651 41.6396 78.3047 42 77.874 42C77.4434 42 77.083 41.6396 77.083 41.209L77.083 30.082C77.083 29.1855 76.3623 28.4648 75.4658 28.4648L71.2119 28.4648L71.2119 41.209C71.2119 41.6396 70.8604 42 70.4209 42C69.9902 42 69.6299 41.6396 69.6299 41.209L69.6299 17.5928C69.6299 17.1621 69.9902 16.8018 70.4209 16.8018C70.8604 16.8018 71.2119 17.1621 71.2119 17.5928L71.2119 26.8828L73.7344 26.8828C74.5254 26.8828 75.2461 26.1621 75.2461 25.292L75.2461 20.9766C75.2461 20.5459 75.6065 20.1855 76.0371 20.1855C76.4678 20.1855 76.8281 20.5459 76.8281 20.9766L76.8281 25.292ZM82.1643 16.8018L89.6438 16.8018C90.0833 16.8018 90.4436 17.1621 90.4436 17.5928C90.4436 18.0234 90.0833 18.3838 89.6438 18.3838L86.6995 18.3838L86.6995 41.209C86.6995 41.6396 86.3391 42 85.8997 42C85.469 42 85.1086 41.6396 85.1086 41.209L85.1086 18.3838L82.1643 18.3838C81.7249 18.3838 81.3645 18.0234 81.3645 17.5928C81.3645 17.1621 81.7249 16.8018 82.1643 16.8018ZM114.449 17.1973L111.426 22.9893L108.402 17.1973C108.262 16.9072 108.007 16.8018 107.717 16.8018C107.286 16.8018 106.926 17.1621 106.926 17.5928L106.926 41.209C106.926 41.6396 107.286 42 107.717 42C108.156 42 108.508 41.6396 108.508 41.209L108.508 27.1289L110.784 30.7324C111.03 31.1279 111.821 31.1279 112.076 30.7324L114.344 27.1289L114.344 41.209C114.344 41.6396 114.704 42 115.135 42C115.566 42 115.926 41.6396 115.926 41.209L115.926 17.5928C115.926 17.1621 115.566 16.8018 115.135 16.8018C114.845 16.8018 114.599 16.9072 114.449 17.1973ZM126.873 35.2324C126.873 35.6631 126.512 36.0234 126.082 36.0234L122.188 36.0234L122.188 39.1523C122.188 39.8379 122.803 40.418 123.489 40.418L126.082 40.418C126.512 40.418 126.873 40.7783 126.873 41.209C126.873 41.6396 126.512 42 126.082 42L123.489 42C121.907 42 120.606 40.7432 120.606 39.1523L120.606 19.6406C120.606 18.0586 121.907 16.8018 123.489 16.8018L126.082 16.8018C126.512 16.8018 126.873 17.1621 126.873 17.5928C126.873 18.0234 126.512 18.3838 126.082 18.3838L123.489 18.3838C122.803 18.3838 122.188 18.9639 122.188 19.6406L122.188 34.4414L126.082 34.4414C126.512 34.4414 126.873 34.8018 126.873 35.2324ZM138.538 17.5928C138.538 17.1621 138.898 16.8018 139.329 16.8018C139.759 16.8018 140.12 17.1621 140.12 17.5928L140.12 41.209C140.12 41.6396 139.759 42 139.329 42C138.968 42 138.678 41.7803 138.573 41.4639L132.772 22.7783L132.772 41.209C132.772 41.6396 132.42 42 131.981 42C131.55 42 131.19 41.6396 131.19 41.209L131.19 17.5928C131.19 17.1621 131.55 16.8018 131.981 16.8018C132.341 16.8018 132.631 17.0127 132.737 17.3379L138.538 36.0234L138.538 17.5928ZM95.2599 28.0342L100.665 28.0342L100.665 20.9766C100.665 19.2803 99.4787 18.0234 97.967 18.0234C96.4553 18.0234 95.2599 19.2803 95.2599 20.9766L95.2599 28.0342ZM110.784 25.0811C110.995 25.5117 111.857 25.5117 112.076 25.0811L114.344 20.792L114.344 24.1758L111.426 28.79L108.508 24.1758L108.508 20.792L110.784 25.0811ZM95.2599 30.9521L100.665 30.9521L100.665 29.6162L95.2599 29.6162L95.2599 30.9521Z" fill-rule="evenodd" fill="#004B87"/>
	</g>
	<defs>
		<clipPath id="clip2_1">
			<rect width="186.000000" height="58.000000" fill="white"/>
		</clipPath>
	</defs>
</svg>
