<svg width="183.000000" height="183.000000" viewBox="0 0 183 183" fill="none" xmlns="http://www.w3.org/2000/svg" xmlns:xlink="http://www.w3.org/1999/xlink">
	<desc>
			Created with Pixso.
	</desc>
	<g clip-path="url(#clip4_5)">
		<rect width="183.000000" height="183.000000" fill="transparent"/>
		<circle cx="91.500000" cy="91.500000" r="88.500000" stroke="#004B87" stroke-width="6.000000"/>
		<path d="M132.064 89.4749L73.1199 51.6624C71.1232 50.3815 68.5 51.8153 68.5 54.1875L68.5 129.813C68.5 132.185 71.1232 133.618 73.1199 132.338L132.064 94.5251C133.904 93.3446 133.904 90.6554 132.064 89.4749Z" fill-rule="evenodd" fill="#FFCD00"/>
		<path d="M73.1199 51.6624C71.1232 50.3815 68.5 51.8153 68.5 54.1875L68.5 129.813C68.5 132.185 71.1232 133.618 73.1199 132.338L132.064 94.5251C133.904 93.3446 133.904 90.6554 132.064 89.4749L73.1199 51.6624ZM76.3595 46.6122C70.3695 42.7696 62.5 47.0709 62.5 54.1875L62.5 129.813C62.5 136.929 70.3695 141.23 76.3595 137.388L135.303 99.5753C140.824 96.0338 140.824 87.9662 135.303 84.4247L76.3595 46.6122Z" fill-rule="evenodd" fill="#004B87"/>
	</g>
	<defs>
		<clipPath id="clip4_5">
			<rect width="183.000000" height="183.000000" fill="white"/>
		</clipPath>
	</defs>
</svg>
