<svg width="73.999756" height="62.437347" viewBox="0 0 73.9998 62.4373" fill="none" xmlns="http://www.w3.org/2000/svg" xmlns:xlink="http://www.w3.org/1999/xlink">
	<desc>
			Created with Pixso.
	</desc>
	<path d="M62.157 34.6876L21.9695 34.6876C20.0538 34.6876 18.5008 33.1345 18.5008 31.2188C18.5008 29.3032 20.0538 27.7501 21.9695 27.7501L62.157 27.7501L57.6722 23.2653C56.3176 21.9106 56.3176 19.7145 57.6722 18.3598C59.0267 17.0051 61.223 17.0051 62.5777 18.3598L72.9834 28.7657C73.0646 28.8469 73.1414 28.932 73.214 29.0208C73.2457 29.0594 73.2732 29.1003 73.303 29.1399C73.3412 29.1908 73.3805 29.2405 73.4158 29.2935C73.4482 29.3418 73.4762 29.392 73.5058 29.4415C73.5342 29.4891 73.5641 29.5356 73.5902 29.5846C73.6175 29.6355 73.6404 29.6877 73.6649 29.7396C73.689 29.7902 73.7142 29.8401 73.7357 29.8919C73.7565 29.9426 73.7736 29.9941 73.7919 30.0455C73.812 30.101 73.8333 30.1558 73.8503 30.2125C73.8658 30.2638 73.8772 30.3158 73.8901 30.3679C73.9047 30.4254 73.9209 30.4828 73.9324 30.5415C73.9443 30.6014 73.9514 30.662 73.96 30.7224C73.9674 30.7739 73.9773 30.8248 73.9824 30.8771C73.9935 30.989 73.9993 31.1016 73.9995 31.214C73.9993 31.3266 73.9935 31.4492 73.9824 31.5613C73.9773 31.6129 73.9676 31.6631 73.9604 31.7142C73.9517 31.7752 73.9445 31.8363 73.9324 31.8969C73.9209 31.9551 73.905 32.0116 73.8904 32.0687C73.8772 32.1212 73.8657 32.1741 73.8499 32.2262C73.833 32.2819 73.812 32.3358 73.7925 32.3904C73.7738 32.4426 73.7567 32.4951 73.7354 32.5464C73.7144 32.5973 73.6896 32.6461 73.6661 32.6958C73.6411 32.7488 73.6175 32.8022 73.5897 32.8542C73.5643 32.9016 73.5354 32.9467 73.5079 32.9927C73.4776 33.0439 73.4487 33.0954 73.4154 33.1451C73.3817 33.1958 73.3439 33.2432 73.3076 33.292C73.2762 33.3338 73.2471 33.3771 73.2135 33.4178C73.1443 33.502 73.071 33.5826 72.9945 33.6601L62.5779 44.0781C61.9004 44.7554 61.0128 45.0942 60.1251 45.0942C59.2375 45.094 58.3495 44.7554 57.6724 44.0783C56.3178 42.7237 56.3178 40.5275 57.6722 39.1729L62.157 34.6876Z" fill-rule="evenodd" fill="#004B87"/>
	<path d="M3.46875 0L47.4059 0C49.3217 0 50.8747 1.55304 50.8747 3.46875L50.8747 17.3436C50.8747 19.2593 49.3217 20.8124 47.4059 20.8124C45.4903 20.8124 43.9373 19.2593 43.9373 17.3436L43.9373 6.93744L6.9375 6.93744L6.9375 55.4999L43.9373 55.4999L43.9373 45.0935C43.9373 43.1778 45.4903 41.6247 47.4059 41.6247C49.3217 41.6247 50.8747 43.1778 50.8747 45.0935L50.8747 58.9686C50.8747 60.8843 49.3217 62.4373 47.4059 62.4373L3.46875 62.4373C1.5531 62.4373 0 60.8843 0 58.9686L0 3.46875C0 1.55304 1.5531 0 3.46875 0Z" fill-rule="evenodd" fill="#004B87"/>
	<defs/>
</svg>
